Coordinates
version=1
nRows=24
nColumns=34
inDegrees=no

Units are S.I. units (second, meters, Newtons, ...)
If the header above contains a line with 'inDegrees', this indicates whether rotational values are in degrees (yes) or radians (no).

endheader
time	pelvis_tilt	pelvis_list	pelvis_rotation	pelvis_tx	pelvis_ty	pelvis_tz	hip_flexion_r	hip_adduction_r	hip_rotation_r	knee_angle_r	ankle_angle_r	subtalar_angle_r	mtp_angle_r	hip_flexion_l	hip_adduction_l	hip_rotation_l	knee_angle_l	ankle_angle_l	subtalar_angle_l	mtp_angle_l	lumbar_extension	lumbar_bending	lumbar_rotation	arm_flex_r	arm_add_r	arm_rot_r	elbow_flex_r	pro_sup_r	arm_flex_l	arm_add_l	arm_rot_l	elbow_flex_l	pro_sup_l
0.66	-0.335469	-0.0702251	0.0469258	-1.03172	1.29179	-0.593572	0.631158	0.00652793	-0.006361	0.767769	0.32634	-0.031976	-0.129736	0.57451	-0.100299	-0.037404	0.682883	0.49673	0.244203	-0.129736	-0.312131	0.0888111	-0.00128945	-0.0291693	-0.304248	0.0193033	0.838755	1.63897	-0.0435326	-0.271772	-0.0251713	1.06349	1.49694
0.67	-0.341008	-0.0711828	0.0471449	-1.0291	1.28734	-0.593689	0.648218	0.00792205	-0.00418651	0.794812	0.330655	-0.052036	-0.129736	0.593889	-0.102882	-0.0370141	0.71437	0.505132	0.235952	-0.129736	-0.311449	0.0887607	-0.000125323	-0.0243718	-0.305993	0.022789	0.842656	1.63185	-0.03865	-0.273139	-0.0268144	1.07505	1.4983
0.68	-0.345963	-0.0720207	0.0470514	-1.02638	1.28271	-0.593673	0.664967	0.00930832	-0.00236016	0.822608	0.334736	-0.0728753	-0.129736	0.612405	-0.105373	-0.0353187	0.745876	0.512732	0.22424	-0.129736	-0.310957	0.0883936	0.00109871	-0.0194855	-0.307717	0.0254138	0.845635	1.63545	-0.0338053	-0.274742	-0.0286522	1.08773	1.49724
0.69	-0.349589	-0.0722194	0.0472582	-1.02351	1.27807	-0.593698	0.680287	0.00968017	-0.0007953	0.850954	0.338422	-0.0938045	-0.129736	0.629001	-0.106777	-0.0324395	0.777065	0.519151	0.209913	-0.129736	-0.311496	0.0873756	0.00170299	-0.0140227	-0.309283	0.0277846	0.847683	1.64203	-0.0288038	-0.276665	-0.0303644	1.10122	1.49498
0.7	-0.352046	-0.0714797	0.0482662	-1.02048	1.27343	-0.593813	0.694343	0.00847388	0.000621849	0.87999	0.341447	-0.115065	-0.129736	0.644253	-0.107029	-0.0292999	0.808638	0.523727	0.195616	-0.129736	-0.312952	0.0855355	0.00126414	-0.00791131	-0.310598	0.0305263	0.848895	1.64851	-0.0235828	-0.279227	-0.0316948	1.11512	1.49343
0.71	-0.354064	-0.070252	0.0498801	-1.01736	1.26869	-0.593901	0.708075	0.00635361	0.00202713	0.909799	0.343531	-0.137246	-0.129736	0.659548	-0.10718	-0.0266844	0.841528	0.526275	0.181996	-0.129736	-0.314516	0.0831712	0.000495035	-0.00189925	-0.311804	0.0329505	0.850297	1.65207	-0.0178622	-0.282534	-0.0312968	1.12903	1.49194
0.72	-0.355938	-0.0690099	0.0514344	-1.01414	1.2638	-0.593901	0.721755	0.00420604	0.00392838	0.94001	0.344826	-0.160157	-0.129736	0.67537	-0.107778	-0.0245086	0.875823	0.526837	0.166319	-0.129736	-0.315686	0.0804533	0.000609589	0.00334596	-0.313139	0.0338703	0.853205	1.64387	-0.0112946	-0.286401	-0.027983	1.14491	1.47434
0.73	-0.357175	-0.0676505	0.0527119	-1.01083	1.25883	-0.593914	0.734692	0.00202077	0.00666965	0.970198	0.345433	-0.183458	-0.129736	0.691051	-0.108136	-0.021793	0.911036	0.525153	0.146037	-0.129736	-0.316892	0.0772916	0.00167551	0.00804163	-0.314644	0.0322456	0.85465	1.64749	-0.00390799	-0.290032	-0.0244432	1.15549	1.48636
0.74	-0.357357	-0.0657005	0.0540921	-1.00736	1.25387	-0.594029	0.746239	-0.000813053	0.010092	1.00024	0.344987	-0.20765	-0.129736	0.70579	-0.107429	-0.0179286	0.946583	0.521036	0.122015	-0.129736	-0.318671	0.0736557	0.00245417	0.0125645	-0.316738	0.031456	0.856925	1.64709	0.00335658	-0.293902	-0.021826	1.16808	1.48579
0.75	-0.356701	-0.0630719	0.0558068	-1.00363	1.24891	-0.594185	0.756314	-0.00438675	0.0137599	1.02989	0.34338	-0.23306	-0.129736	0.719173	-0.105957	-0.0133543	0.981668	0.515083	0.0974407	-0.129736	-0.320898	0.0696279	0.00215546	0.0168048	-0.319541	0.0334769	0.862157	1.6288	0.0098685	-0.298153	-0.0206448	1.17885	1.49702
0.76	-0.355671	-0.0598523	0.0575469	-0.999599	1.24397	-0.594302	0.765092	-0.00851968	0.0174698	1.0586	0.341465	-0.258371	-0.129736	0.730787	-0.104403	-0.00908446	1.01504	0.508538	0.0747614	-0.129736	-0.323001	0.0650988	0.00135821	0.020282	-0.322599	0.0350135	0.866709	1.62025	0.0156895	-0.30314	-0.0186094	1.19064	1.49851
0.77	-0.354516	-0.055981	0.0590261	-0.995254	1.23906	-0.594466	0.772607	-0.0134673	0.0211565	1.08581	0.340287	-0.28183	-0.129736	0.74012	-0.102697	-0.00584707	1.04545	0.502711	0.0542304	-0.129736	-0.324433	0.0598665	0.000662962	0.0226054	-0.326235	0.0348378	0.869654	1.62286	0.0209961	-0.308439	-0.0154112	1.20202	1.49676
0.78	-0.352971	-0.0517818	0.0604514	-0.99056	1.23423	-0.594765	0.778125	-0.0191158	0.024464	1.11081	0.340567	-0.302788	-0.129736	0.746509	-0.100738	-0.00350336	1.07215	0.498847	0.0357242	-0.129736	-0.325157	0.0544542	-3.05902e-05	0.0235297	-0.331124	0.03393	0.871486	1.63353	0.0255533	-0.313628	-0.0122101	1.21141	1.50166
0.79	-0.350325	-0.0483694	0.0619752	-0.985396	1.22963	-0.595079	0.780009	-0.0239744	0.0267636	1.13237	0.342682	-0.321297	-0.129736	0.748917	-0.0995213	-0.00128075	1.09476	0.498222	0.0204396	-0.129736	-0.325667	0.0501123	-0.000659308	0.022891	-0.337258	0.0340803	0.874777	1.6349	0.0289448	-0.319192	-0.00855394	1.22188	1.49339
0.8	-0.346315	-0.0463112	0.063102	-0.979635	1.22544	-0.595289	0.777156	-0.0268139	0.0279408	1.14924	0.347114	-0.336497	-0.129736	0.746265	-0.0998235	0.000586083	1.11237	0.501913	0.0095791	-0.129736	-0.32598	0.0473222	-0.000526732	0.0201943	-0.344025	0.0350857	0.87952	1.63148	0.0310071	-0.325486	-0.00350884	1.22865	1.4981
0.81	-0.342038	-0.0448634	0.0632543	-0.97322	1.22176	-0.595446	0.770445	-0.0283214	0.0283189	1.161	0.354377	-0.347065	-0.129736	0.738641	-0.10093	0.000483574	1.12357	0.510372	0.00353281	-0.129736	-0.324596	0.0452565	0.000628375	0.0144757	-0.351489	0.0372595	0.88711	1.61625	0.0311222	-0.332819	0.00386084	1.23386	1.50085
0.82	-0.338873	-0.0435502	0.0624951	-0.96614	1.21867	-0.5956	0.761335	-0.0295148	0.0274879	1.16765	0.364673	-0.352144	-0.129736	0.727128	-0.102212	-0.0025042	1.12774	0.523406	0.00346759	-0.129736	-0.319812	0.0433052	0.00230634	0.0049849	-0.359864	0.0402284	0.898549	1.58188	0.0283956	-0.34071	0.0116143	1.23543	1.51788
0.83	-0.336895	-0.042638	0.0610672	-0.958339	1.21636	-0.595718	0.749814	-0.0303541	0.0247589	1.16887	0.377336	-0.351416	-0.129736	0.712029	-0.103951	-0.00821641	1.12504	0.539925	0.0101673	-0.129736	-0.311606	0.041729	0.00447902	-0.00856204	-0.368354	0.0396003	0.907394	1.5799	0.0224575	-0.348694	0.0191783	1.23686	1.5284
0.84	-0.335185	-0.0422233	0.0588398	-0.949745	1.21521	-0.595873	0.734788	-0.0306034	0.0201086	1.16406	0.391029	-0.344444	-0.129736	0.692564	-0.106178	-0.0165444	1.11547	0.557701	0.0215652	-0.129736	-0.301268	0.0408065	0.00755895	-0.0257997	-0.376747	0.0359343	0.916194	1.58297	0.0134711	-0.356012	0.0270125	1.23752	1.53271
0.85	-0.333142	-0.042268	0.055782	-0.940352	1.2155	-0.596136	0.715724	-0.0302598	0.0137006	1.15282	0.403925	-0.331474	-0.129736	0.6686	-0.108628	-0.0270477	1.09923	0.574011	0.0352186	-0.129736	-0.289812	0.0407537	0.011596	-0.0459602	-0.384844	0.030582	0.92397	1.59516	0.00156228	-0.362529	0.0358017	1.23652	1.53378
0.86	-0.33064	-0.0428979	0.0524767	-0.930194	1.21736	-0.596428	0.692746	-0.0293286	0.00550697	1.1353	0.413969	-0.313598	-0.129736	0.641041	-0.111266	-0.0384757	1.07721	0.586432	0.0515058	-0.129736	-0.277658	0.0417153	0.0156626	-0.0682989	-0.392421	0.0262333	0.934394	1.58452	-0.0135785	-0.369068	0.0457006	1.2369	1.51675
0.87	-0.327323	-0.0435479	0.0495539	-0.919295	1.22093	-0.596696	0.665951	-0.0285228	-0.00374221	1.11222	0.419004	-0.291625	-0.129736	0.610311	-0.113397	-0.050087	1.05013	0.59259	0.0714305	-0.129736	-0.265611	0.0431087	0.0186613	-0.0922894	-0.39872	0.0206086	0.943941	1.58299	-0.0319394	-0.375551	0.0548825	1.23328	1.51984
0.88	-0.322439	-0.0431372	0.0469779	-0.907688	1.22639	-0.597027	0.635382	-0.0290896	-0.0127227	1.08469	0.417231	-0.265196	-0.129736	0.575969	-0.113823	-0.0620373	1.01819	0.5898	0.0941087	-0.129736	-0.25503	0.0438433	0.0202023	-0.117161	-0.403903	0.0140248	0.954922	1.56931	-0.0531429	-0.381302	0.0624746	1.22887	1.52357
0.89	-0.315311	-0.0414274	0.0443722	-0.895443	1.2339	-0.597476	0.601298	-0.0313557	-0.0209451	1.05368	0.4066	-0.235066	-0.129736	0.537926	-0.112483	-0.0742366	0.982224	0.575509	0.118013	-0.129736	-0.24698	0.0434918	0.0206583	-0.141663	-0.407805	0.00720612	0.966158	1.54011	-0.0764054	-0.385271	0.0666762	1.22134	1.54012
